# AST/ASF file generated using VICON BodyLanguage
# -----------------------------------------------
:version 1.10
:name VICON
:units
  mass 1.0
  length 0.45
  angle deg
:documentation
   .ast/.asf automatically generated from VICON data using
   VICON BodyBuilder and BodyLanguage model FoxedUp or BRILLIANT.MOD
:root
   order TX TY TZ RX RY RZ
   axis XYZ
   position 0 0 0  
   orientation 0 0 0 
:bonedata
  begin
     id 1 
     name lhipjoint
     direction 0.630082 -0.636569 0.44472 
     length 2.82754 
     axis 0 0 0  XYZ
  end
  begin
     id 2 
     name lfemur
     direction 0.34202 -0.939693 0  
     length 7.26371  
     axis 0 0 20  XYZ
    dof rx ry rz
    limits (-160.0 20.0)
           (-70.0 70.0)
           (-60.0 70.0)
  end
  begin
     id 3 
     name ltibia
     direction 0.34202 -0.939693 0   
     length 7.88616   
     axis 0 0 20   XYZ
    dof rx
    limits (-10.0 170.0)
  end
  begin
     id 4 
     name lfoot
     direction 0.0603448 -0.165796 0.984312   
     length 1.77861   
     axis -90 7.62852e-016 20   XYZ
    dof rx rz
    limits (-45.0 90.0)
           (-70.0 20.0)
  end
  begin
     id 5 
     name ltoes
     direction 1.53577e-011 -4.21876e-011 1   
     length 0.902235   
     axis -90 7.62852e-016 20   XYZ
    dof rx
    limits (-90.0 20.0)
  end
  begin
     id 6 
     name rhipjoint
     direction -0.656778 -0.61817 0.431866   
     length 2.9117  
     axis 0 0 0  XYZ 
  end
  begin
     id 7 
     name rfemur
     direction -0.34202 -0.939693 0   
     length 6.81603   
     axis 0 0 -20   XYZ
    dof rx ry rz
    limits (-160.0 20.0)
           (-70.0 70.0)
           (-70.0 60.0)
  end
  begin
     id 8 
     name rtibia
     direction -0.34202 -0.939693 0   
     length 8.05997   
     axis 0 0 -20   XYZ
    dof rx
    limits (-10.0 170.0)
 end
 begin
     id 9 
     name rfoot
     direction -0.0862404 -0.236944 0.967688   
     length 1.84899  
     axis -90 -7.62852e-016 -20   XYZ
    dof rx rz
    limits (-45.0 90.0)
           (-20.0 70.0)
  end
  begin
     id 10 
     name rtoes
     direction -1.53561e-011 -4.21798e-011 1   
     length 0.931579   
     axis -90 -7.62852e-016 -20   XYZ
    dof rx
    limits (-90.0 20.0)
  end
  begin
     id 11 
     name lowerback
     direction -0.0110203 0.991769 -0.127564   
     length 2.05686   
     axis 0 0 0   XYZ
    dof rx ry rz
    limits (-20.0 45.0)
           (-30.0 30.0)
           (-30.0 30.0)
  end
  begin
     id 12 
     name upperback
     direction 0.0109719 0.99993 -0.00432479   
     length 2.06234   
     axis 0 0 0   XYZ
    dof rx ry rz
    limits (-20.0 45.0)
           (-30.0 30.0)
           (-30.0 30.0)
  end
  begin
     id 13 
     name thorax
     direction 0.0173308 0.998351 0.0547306   
     length 2.09856   
     axis 0 0 0   XYZ
    dof rx ry rz
    limits (-20.0 45.0)
           (-30.0 30.0)
           (-30.0 30.0)
  end
  begin
     id 14 
     name lowerneck
     direction -0.0311736 0.989033 0.144366   
     length 1.98151   
     axis 0 0 0   XYZ
    dof rx ry rz
    limits (-20.0 45.0)
           (-30.0 30.0)
           (-30.0 30.0)
  end
  begin
     id 15 
     name upperneck
     direction 0.0421057 0.975772 -0.214698   
     length 2.01457   
     axis 0 0 0   XYZ
    dof rx ry rz
    limits (-20.0 45.0)
           (-30.0 30.0)
           (-30.0 30.0)
  end
  begin
     id 16
     name head
     direction 0.0136911 0.995958 -0.0887718  
     length 2.03562  
     axis 0 0 0   XYZ
    dof rx ry rz
    limits (-20.0 45.0)
           (-30.0 30.0)
           (-30.0 30.0)
  end
  begin
     id 17 
     name lclavicle
     direction 0.915335 0.396201 0.0720134  
     length 4.16217  
     axis 0 0 0   XYZ
    dof ry rz
    limits (-20.0 10.0)
           (0.0 20.0)
  end
  begin
     id 18 
     name lhumerus
     direction 1 -4.48965e-011 6.383e-018   
     length 4.93042   
     axis -180 -30 -90   XYZ
    dof rx ry rz
    limits (-60.0 90.0)
           (-90.0 90.0)
           (-90.0 90.0)
  end
  begin
     id 19
     name lradius
     direction 1 -4.48972e-011 8.8689e-027   
     length 3.68177   
     axis -180 -30 -90   XYZ
    dof rx
    limits (-10.0 170.0)
  end
  begin
     id 20
     name lwrist
     direction 1 -4.48953e-011 1.17971e-026   
     length 1.84089   
     axis -7.69454e-015 90 90   XYZ
    dof ry
    limits (-180.0 0.0)
 end
  begin
     id 21 
     name lhand
     direction 1 -4.49027e-011 2.35802e-026   
     length 0.721479   
     axis -1.50533e-014 90 90   XYZ
    dof rx rz
    limits (-90.0 90.0)
           (-45.0 45.0)
  end
  begin
     id 22 
     name lfingers
     direction 1 -4.48915e-011 4.72027e-026   
     length 0.581675   
     axis -3.01059e-014 90 90   XYZ
    dof rx
    limits (0.0 90.0)
  end
  begin
     id 23
     name lthumb
     direction 0.707107 -6.34948e-011 0.707107   
     length 0.835172   
     axis -90 45 -5.12164e-014   XYZ
    dof rx rz
    limits (-45.0 45.0)
           (-45.0 45.0)
  end
  begin
     id 24 
     name rclavicle
     direction -0.882781 0.469197 0.0234974   
     length 3.95647  
     axis 0 0 0   XYZ 
    dof ry rz
    limits (-10.0 20.0)
           (-20.0 0.0)
  end
  begin
     id 25 
     name rhumerus
     direction -1 -4.48965e-011 -1.54906e-018  
     length 5.07905   
     axis -180 30 90   XYZ
    dof rx ry rz
    limits (-90.0 60.0)
           (-90.0 90.0)
           (-90.0 90.0)
  end
  begin
     id 26 
     name rradius
     direction -1 -4.48972e-011 5.47489e-027   
     length 3.54394   
     axis -180 30 90   XYZ
    dof rx
    limits (-10.0 170.0)
  end
  begin
     id 27 
     name rwrist
     direction -1 -4.48955e-011 1.17969e-026   
     length 1.77197   
     axis -7.69454e-015 -90 -90   XYZ
    dof ry
    limits (-180.0 0.0)
  end
  begin
     id 28
     name rhand
     direction -1 -4.48982e-011 2.35888e-026   
     length 0.681156   
     axis -1.50533e-014 -90 -90   XYZ
    dof rx rz
    limits (-90.0 90.0)
           (-45.0 45.0)
  end
  begin
     id 29
     name rfingers
     direction -1 -4.48955e-011 4.71877e-026   
     length 0.549165   
     axis -3.01059e-014 -90 -90   XYZ
    dof rx
    limits (0.0 90.0)
  end
  begin
     id 30
     name rthumb
     direction -0.707107 -6.3491e-011 0.707107   
     length 0.788495   
     axis -90 -45 5.12164e-014   XYZ
    dof rx rz
    limits (-45.0 45.0)
           (-45.0 45.0)
  end
:hierarchy
  begin
    root lhipjoint rhipjoint lowerback
    lhipjoint lfemur
    lfemur ltibia
    ltibia lfoot
    lfoot ltoes
    rhipjoint rfemur
    rfemur rtibia
    rtibia rfoot
    rfoot rtoes
    lowerback upperback
    upperback thorax
    thorax lowerneck lclavicle rclavicle
    lowerneck upperneck
    upperneck head
    lclavicle lhumerus
    lhumerus lradius
    lradius lwrist
    lwrist lhand lthumb
    lhand lfingers
    rclavicle rhumerus
    rhumerus rradius
    rradius rwrist
    rwrist rhand rthumb
    rhand rfingers
  end

#!OML:ASF H:\Bending\Project 1\Capture day 1\Session 1\Subject.ASF
:FULLY-SPECIFIED
:DEGREES
219
root -9.4512 17.9458 -16.396 -160.622 86.107 -163.554
lowerback 6.24126 -0.550135 0.0328676
upperback -3.1677 -0.5774 2.02051
thorax -6.79628 -0.223186 2.16467
lowerneck -24.0581 -4.11954 -6.71649
upperneck 30.7915 -4.06438 3.45924
head 14.9845 -1.86251 1.8229
rclavicle -7.66563e-015 -7.95139e-016
rhumerus -53.6107 23.343 -99.8023
rradius 91.2763
rwrist 1.59048
rhand -29.7459 -38.5385
rfingers 7.12502
rthumb -3.07206 -68.4961
lclavicle -7.66563e-015 -7.95139e-016
lhumerus -55.1233 -30.5066 110.975
lradius 92.9342
lwrist 31.1928
lhand -42.1371 19.0782
lfingers 7.12502
lthumb -15.0272 48.5129
rfemur 7.77357 -5.09065 15.595
rtibia 2.54444e-014
rfoot -9.08407 -15.6796
rtoes 1.47737
lfemur -4.69813 -11.998 -12.8435
ltibia 21.6173
lfoot -22.8858 8.16765
ltoes -0.174927
220
root -9.45052 17.9435 -16.3962 -159.655 86.2064 -162.469
lowerback 6.15175 -0.531155 -0.00310956
upperback -3.18505 -0.551487 2.07364
thorax -6.76337 -0.20715 2.23634
lowerneck -24.0035 -4.09719 -6.67307
upperneck 30.8556 -4.02775 3.39497
head 14.9964 -1.85048 1.7978
rclavicle 1.9133e-015 -9.14409e-015
rhumerus -53.6893 23.6825 -99.8448
rradius 91.3548
rwrist 1.38953
rhand -30.1193 -38.8658
rfingers 7.12502
rthumb -3.43263 -68.8179
lclavicle 1.9133e-015 -9.14409e-015
lhumerus -55.2351 -30.2224 111.137
lradius 93.0717
lwrist 30.6028
lhand -42.3591 19.09
lfingers 7.12502
lthumb -15.2411 48.5085
rfemur 7.86936 -4.96417 15.6243
rtibia -3.18055e-015
rfoot -9.08857 -15.6749
rtoes 1.70009
lfemur -4.53884 -11.8587 -12.8289
ltibia 21.6286
lfoot -22.9307 8.11071
ltoes -0.108699
221
root -9.45043 17.942 -16.396 -158.97 86.2964 -161.673
lowerback 6.06374 -0.524146 -0.0516238
upperback -3.19439 -0.543593 2.11888
thorax -6.72211 -0.19985 2.30887
lowerneck -23.9761 -4.0809 -6.6461
upperneck 30.9657 -3.99094 3.33214
head 15.036 -1.8396 1.77666
rclavicle -3.55328e-015 -8.74653e-015
rhumerus -53.7596 24.0862 -99.941
rradius 91.3463
rwrist 1.14986
rhand -30.5036 -39.2026
rfingers 7.12502
rthumb -3.80382 -69.1484
lclavicle -3.55328e-015 -8.74653e-015
lhumerus -55.3648 -30.0494 111.34
lradius 93.2308
lwrist 30.1221
lhand -42.7548 19.111
lfingers 7.12502
lthumb -15.6222 48.5002
rfemur 7.95452 -4.85364 15.6343
rtibia -2.38542e-014
rfoot -9.08257 -15.6625
rtoes 1.97156
lfemur -4.38079 -11.7685 -12.8357
ltibia 21.62
lfoot -22.9735 8.09102
ltoes -0.00795699
222
root -9.45128 17.941 -16.3957 -158.78 86.3488 -161.373
lowerback 5.98107 -0.537197 -0.0936819
upperback -3.19387 -0.563363 2.14897
thorax -6.6725 -0.20715 2.36502
lowerneck -23.9753 -4.07764 -6.65529
upperneck 31.1263 -3.96457 3.29509
head 15.1075 -1.83311 1.77103
rclavicle -1.01256e-014 2.10712e-014
rhumerus -53.7957 24.5377 -100.092
rradius 91.2479
rwrist 0.860158
rhand -30.9218 -39.5607
rfingers 7.12502
rthumb -4.2076 -69.4988
lclavicle -1.01256e-014 2.10712e-014
lhumerus -55.494 -30.0076 111.567
lradius 93.3908
lwrist 29.8136
lhand -43.3479 19.1444
lfingers 7.12502
lthumb -16.1934 48.488
rfemur 8.0445 -4.78953 15.6196
rtibia -3.18055e-014
rfoot -9.09663 -15.6307
rtoes 2.45258
lfemur -4.23628 -11.7353 -12.8626
ltibia 21.6032
lfoot -22.993 8.09122
ltoes 0.0896649
223
root -9.45377 17.9404 -16.3953 -159.025 86.3551 -161.51
lowerback 5.90981 -0.568214 -0.116849
upperback -3.18531 -0.606618 2.16575
thorax -6.62019 -0.227419 2.39925
lowerneck -23.9911 -4.09477 -6.71347
upperneck 31.3278 -3.96027 3.29878
head 15.206 -1.83539 1.78705
rclavicle -8.72168e-015 -7.95139e-016
rhumerus -53.7795 25.0261 -100.285
rradius 91.0753
rwrist 0.494525
rhand -31.3903 -39.9498
rfingers 7.12502
rthumb -4.66 -69.8786
lclavicle -8.72168e-015 -7.95139e-016
lhumerus -55.5967 -30.092 111.799
lradius 93.5207
lwrist 29.6817
lhand -44.0961 19.2142
lfingers 7.12502
lthumb -16.9137 48.4977
rfemur 8.14027 -4.77817 15.5881
rtibia -3.18055e-015
rfoot -9.15007 -15.5738
rtoes 3.23038
lfemur -4.12398 -11.7233 -12.8941
ltibia 21.5946
lfoot -22.9643 8.08077
ltoes 0.0754902
224
root -9.45862 17.9399 -16.3948 -159.432 86.3306 -161.822
lowerback 5.85285 -0.604692 -0.121634
upperback -3.17352 -0.655943 2.1765
thorax -6.57262 -0.251692 2.41761
lowerneck -24.009 -4.1377 -6.81994
upperneck 31.5539 -3.98746 3.34285
head 15.322 -1.85062 1.82259
rclavicle -1.13928e-014 2.38542e-014
rhumerus -53.707 25.5316 -100.497
rradius 90.8623
rwrist 0.0271066
rhand -31.914 -40.3678
rfingers 7.12502
rthumb -5.16572 -70.2849
lclavicle -1.13928e-014 2.38542e-014
lhumerus -55.6477 -30.288 112.011
lradius 93.5913
lwrist 29.6813
lhand -44.912 19.3627
lfingers 7.12502
lthumb -17.699 48.5772
rfemur 8.22671 -4.80001 15.5554
rtibia -1.74931e-014
rfoot -9.23657 -15.4984
rtoes 4.23015
lfemur -4.06205 -11.6733 -12.9104
ltibia 21.6083
lfoot -22.8726 8.02966
ltoes -0.156278
225
root -9.46628 17.9396 -16.3937 -159.711 86.3064 -162.028
lowerback 5.80868 -0.629163 -0.120642
upperback -3.16372 -0.688384 2.18856
thorax -6.5353 -0.267754 2.43236
lowerneck -24.0179 -4.20738 -6.96049
upperneck 31.7895 -4.04956 3.41316
head 15.4455 -1.88073 1.86848
rclavicle 1.30949e-014 -2.78299e-015
rhumerus -53.5889 26.0171 -100.698
rradius 90.6543
rwrist -0.550038
rhand -32.4848 -40.7979
rfingers 7.12502
rthumb -5.71685 -70.7008
lclavicle 1.30949e-014 -2.78299e-015
lhumerus -55.63 -30.5859 112.184
lradius 93.5877
lwrist 29.7504
lhand -45.6973 19.6407
lfingers 7.12502
lthumb -18.4546 48.7853
rfemur 8.28092 -4.82126 15.5355
rtibia -2.70347e-014
rfoot -9.32491 -15.4239
rtoes 5.21854
lfemur -4.05991 -11.5364 -12.8993
ltibia 21.6503
lfoot -22.7247 7.92271
ltoes -0.625441
226
root -9.47669 17.9395 -16.3916 -159.725 86.3126 -162.001
lowerback 5.77417 -0.62726 -0.130711
upperback -3.15879 -0.685932 2.2047
thorax -6.51005 -0.265859 2.45392
lowerneck -24.0143 -4.2996 -7.11438
upperneck 32.0229 -4.14265 3.49016
head 15.5693 -1.92451 1.91349
rclavicle 1.20513e-015 7.15625e-015
rhumerus -53.4441 26.4315 -100.866
rradius 90.497
rwrist -1.21291
rhand -33.0836 -41.2103
rfingers 7.12502
rthumb -6.2949 -71.0967
lclavicle 1.20513e-015 7.15625e-015
lhumerus -55.5382 -30.9865 112.305
lradius 93.5151
lwrist 29.8431
lhand -46.3766 20.0821
lfingers 7.12502
lthumb -19.1079 49.1635
rfemur 8.28553 -4.81197 15.5338
rtibia 2.38542e-014
rfoot -9.37257 -15.3759
rtoes 5.88766
lfemur -4.11285 -11.3018 -12.8634
ltibia 21.7166
lfoot -22.5495 7.76584
ltoes -1.22314
227
root -9.48939 17.9394 -16.3883 -159.539 86.362 -161.804
lowerback 5.74898 -0.594787 -0.16298
upperback -3.15782 -0.644185 2.22225
thorax -6.49585 -0.243458 2.48534
lowerneck -24.0025 -4.40615 -7.26374
upperneck 32.2455 -4.25696 3.55939
head 15.6885 -1.97783 1.95006
rclavicle 5.75233e-015 -2.06736e-014
rhumerus -53.2878 26.7238 -100.983
rradius 90.4227
rwrist -1.9015
rhand -33.6862 -41.5793
rfingers 7.12502
rthumb -6.87663 -71.4476
lclavicle 5.75233e-015 -2.06736e-014
lhumerus -55.3762 -31.4946 112.366
lradius 93.3955
lwrist 29.9481
lhand -46.9173 20.6823
lfingers 7.12502
lthumb -19.6278 49.7115
rfemur 8.23964 -4.7616 15.5448
rtibia -1.90833e-014
rfoot -9.34663 -15.3741
rtoes 5.99202
lfemur -4.20306 -11.0052 -12.8192
ltibia 21.7958
lfoot -22.3872 7.58351
ltoes -1.75172
228
root -9.50368 17.939 -16.3841 -159.357 86.4432 -161.629
lowerback 5.738 -0.540369 -0.215512
upperback -3.15704 -0.574999 2.23591
thorax -6.49119 -0.206708 2.52132
lowerneck -23.9901 -4.51697 -7.39854
upperneck 32.4479 -4.37987 3.61583
head 15.7989 -2.035 1.97652
rclavicle -1.56419e-014 2.3059e-014
rhumerus -53.1239 26.8596 -101.042
rradius 90.4403
rwrist -2.52851
rhand -34.2732 -41.8909
rfingers 7.12502
rthumb -7.44329 -71.74
lclavicle -1.56419e-014 2.3059e-014
lhumerus -55.1527 -32.1045 112.361
lradius 93.2591
lwrist 30.084
lhand -47.3332 21.3921
lfingers 7.12502
lthumb -20.0275 50.38
rfemur 8.1606 -4.6841 15.556
rtibia -6.36111e-015
rfoot -9.23981 -15.4225
rtoes 5.4595
lfemur -4.30701 -10.7133 -12.7867
ltibia 21.8745
lfoot -22.2715 7.40764
ltoes -2.01851
229
root -9.51893 17.9382 -16.3796 -159.413 86.5261 -161.695
lowerback 5.75038 -0.481877 -0.272472
upperback -3.15213 -0.501305 2.24167
thorax -6.496 -0.167778 2.55135
lowerneck -23.9825 -4.62293 -7.51637
upperneck 32.619 -4.50019 3.66291
head 15.8952 -2.09067 1.99584
rclavicle -9.49197e-015 6.75868e-015
rhumerus -52.9422 26.8315 -101.044
rradius 90.5343
rwrist -3.00087
rhand -34.8281 -42.1468
rfingers 7.12502
rthumb -7.9789 -71.9762
lclavicle -9.49197e-015 6.75868e-015
lhumerus -54.8758 -32.7889 112.286
lradius 93.1319
lwrist 30.275
lhand -47.6684 22.1357
lfingers 7.12502
lthumb -20.3498 51.0895
rfemur 8.07623 -4.61057 15.5565
rtibia -4.77083e-014
rfoot -9.07564 -15.5054
rtoes 4.43817
lfemur -4.40502 -10.4939 -12.7785
ltibia 21.9427
lfoot -22.2161 7.26636
ltoes -1.95071
230
root -9.5347 17.9371 -16.3757 -159.819 86.576 -162.102
lowerback 5.7943 -0.43915 -0.310304
upperback -3.14099 -0.447603 2.23995
thorax -6.51174 -0.139762 2.56538
lowerneck -23.9805 -4.71761 -7.61749
upperneck 32.7487 -4.611 3.70719
head 15.9718 -2.14119 2.01205
rclavicle 1.87976e-014 -2.8625e-014
rhumerus -52.7251 26.6597 -100.997
rradius 90.6728
rwrist -3.24714
rhand -35.3478 -42.3706
rfingers 7.12502
rthumb -8.48038 -72.1803
lclavicle 1.87976e-014 -2.8625e-014
lhumerus -54.5523 -33.4965 112.138
lradius 93.0287
lwrist 30.525
lhand -47.9739 22.8364
lfingers 7.12502
lthumb -20.6433 51.7586
rfemur 8.01068 -4.57391 15.5436
rtibia 2.38542e-014
rfoot -8.89986 -15.595
rtoes 3.24852
lfemur -4.48964 -10.3871 -12.7924
ltibia 21.9981
lfoot -22.211 7.17374
ltoes -1.63167
